<svg width="24" height="25" viewBox="0 0 24 25" fill="none" xmlns="http://www.w3.org/2000/svg">
<path opacity="0.4" d="M10.7524 21.5876C16.4947 21.5876 21.1498 16.9325 21.1498 11.1902C21.1498 5.44781 16.4947 0.792725 10.7524 0.792725C5.01008 0.792725 0.35498 5.44781 0.35498 11.1902C0.35498 16.9325 5.01008 21.5876 10.7524 21.5876Z" fill="#999999"/>
<path d="M12.7945 8.06318C12.0675 7.83238 11.2943 7.97086 10.7404 8.39784C10.175 7.97086 9.4249 7.83238 8.69789 8.06318C7.12846 8.57093 6.63225 10.3596 7.07076 11.7213C7.74008 13.81 9.94416 14.8948 10.7404 14.8948C11.5136 14.8948 13.7639 13.787 14.4101 11.7213C14.8602 10.3596 14.3639 8.57093 12.7945 8.06318Z" fill="#999999"/>
<path d="M23.4346 20.3644C23.0538 19.6604 22.246 19.2681 21.1613 19.2681C20.3419 19.2681 19.638 19.6027 19.2225 20.1797C18.8071 20.7567 18.7148 21.5299 18.9687 22.3031C19.4649 23.8032 20.3304 24.1379 20.8035 24.1956C20.8728 24.2071 20.942 24.2071 21.0228 24.2071C21.5305 24.2071 22.3152 23.9879 23.0769 22.8454C23.6885 21.9569 23.8039 21.0683 23.4346 20.3644Z" fill="#999999"/>
</svg>
